<svg id="svg" version="1.1" viewBox="0 0 300 300" width="300" height="300" xmlns="http://www.w3.org/2000/svg"><svg xmlns="http://www.w3.org/2000/svg"><defs><clipPath id="clip-1"><rect x="0" y="0" transform="scale(0.14648,0.14648)" width="2048" height="2048" fill="none"/></clipPath></defs><g clip-path="url(#clip-1)" fill="none" fill-rule="nonzero" stroke="none" stroke-width="1" stroke-linecap="butt" stroke-linejoin="miter" stroke-miterlimit="10" stroke-dasharray="" stroke-dashoffset="0" font-family="none" font-weight="none" font-size="none" text-anchor="none" style="mix-blend-mode: normal"><path d="M70.11182,31.97725c17.16841,0.10049 34.33726,0.11382 51.50581,0.03984c7.02451,-0.03472 14.12813,-0.50127 21.12539,0.09199c1.0667,0.09038 3.05508,2.45068 3.87026,3.21431c1.01953,1.21157 5.53418,5.31943 6.04834,6.14136c1.07813,0.85796 2.71729,2.6083 3.75879,3.65464l6.55225,6.58667l6.45703,6.48955c0.90967,0.91816 2.7334,2.66821 3.44092,3.60615c0.42773,3.31611 0.26367,8.12036 0.25488,11.59951l-0.01318,17.51646l0.02344,21.88491c0.00293,2.83418 0.16992,8.0606 -0.02197,10.73643l0.05713,73.68457l0.00586,26.3584c0.00146,4.14404 0.17725,9.86133 -0.04834,13.91309c-0.01172,1.2876 -0.15088,1.50439 -1.05615,2.39209c-5.31152,5.11084 -10.55859,10.28906 -15.73828,15.5332c-2.18555,2.17822 -6.03223,6.32959 -8.36572,8.24121c-0.24023,0.44678 -3.54258,3.76172 -4.04297,4.18945c-0.63149,0.16992 -1.59668,0.22852 -2.25879,0.23145c-5.90112,0.01611 -11.81499,0.00146 -17.71509,0.00146l-33.9958,0.00586c-6.38467,-0.00439 -16.25259,0.16113 -22.79604,-0.20361c-0.51812,-0.02783 -4.73862,-4.31543 -5.21484,-5.09766c-1.44976,-1.17187 -3.39185,-3.17432 -4.73423,-4.5249l-6.28696,-6.30762l-8.16357,-8.1416c-1.40522,-1.40332 -4.32378,-4.00195 -5.05664,-5.6499c-0.24536,-1.97314 -0.15981,-4.65527 -0.14927,-6.66943l0.02739,-10.01221c-0.0063,-2.81836 -0.16641,-5.93994 0.00337,-8.75537c0.02461,-0.40869 0.19321,-0.65186 0.50581,-0.86572c1.1105,0.13916 4.19839,2.21631 5.42373,2.95166c2.47485,1.12207 4.88174,2.61035 7.33198,3.78516c2.14365,1.02832 4.92173,3.08057 7.34868,2.00098c0.4897,-0.21533 1.01792,-0.49219 1.49268,-0.67529c7.1959,-3.46436 14.10718,-6.854 20.63745,-11.61475c1.03462,-0.75439 5.97275,-4.93066 6.60029,-4.95117c1.1792,1.75488 -0.69668,14.53418 0.98262,17.08301c0.62549,0.51563 0.80083,0.68848 1.32012,1.31104c1.97666,1.35645 3.91538,4.01807 5.50986,5.12842c6.82324,0.30029 14.17734,0.17432 21.0252,0.03223c0.98877,-0.02197 2.52451,-1.90869 3.3063,-2.60742c0.19365,-0.29297 0.72598,-0.80273 0.99712,-1.08105c0.47593,-1.1748 2.9083,-2.29541 3.40459,-4.22314l0.04629,-0.7793c-0.12686,-2.41992 0.0728,-6.41602 0.09199,-8.896l-0.01421,-17.49756l0.04849,-63.57173c-0.09785,-3.67427 -0.01157,-7.61177 -0.00117,-11.30801l-0.05156,-25.19502c-0.03545,-3.6123 0.01216,-7.47188 -0.13726,-11.05225c-0.76978,-1.3355 -5.70293,-6.3769 -7.1064,-7.41987c-1.57031,-0.2981 -3.65493,-0.21533 -5.27417,-0.22354l-7.71489,-0.01143c-2.62588,0.01084 -5.3354,-0.06489 -7.99717,0.11191c-1.90342,0.12642 -3.94189,3.72041 -5.46035,4.84292c-0.36152,0.26719 -2.58237,2.49741 -2.57754,2.87432c0.09331,7.30649 0.28418,14.65488 0.0772,21.97573c-0.01714,0.60601 -0.23145,1.15752 -0.71045,1.523c-0.99492,0.0999 -2.79199,-0.56265 -3.80171,-0.86426c-6.9126,-2.06045 -13.41021,-5.11304 -19.78462,-8.44951c-2.14863,-1.12471 -4.09365,-2.90522 -6.38218,-3.64644c-1.96465,0.60967 -3.64775,2.08711 -5.65005,3.14136c-3.97031,2.08872 -8.08389,4.49121 -12.30469,5.96016c-1.7855,0.62139 -1.15854,-5.17529 -1.14038,-6.36738c0.0271,-2.42183 0.0334,-4.8438 0.01875,-7.26577l0.00205,-14.59351c-0.00117,-1.17759 -0.19893,-9.94937 0.34365,-10.52593c9.10928,-9.68101 18.85063,-18.86221 28.18184,-28.35059c1.2687,-1.28994 2.12461,-1.49063 3.93911,-1.43555zM146.35723,243.72363c-1.43672,1.66846 -3.01113,3.24023 -4.56724,4.79443c-1.12207,1.12207 -2.49712,2.33643 -3.41763,3.60205c-1.61016,0.8833 -8.10747,0.58008 -10.39131,0.58008l-16.16001,-0.01611c-1.65146,-0.01318 -6.27729,-0.47021 -7.38662,0.63135c-0.47695,1.56885 2.2125,1.21436 3.06255,1.2334c10.17773,0.23584 20.63027,-0.50244 30.78062,0.06738c2.38799,-1.87793 4.76689,-4.50732 6.95361,-6.6665c3.47827,-3.43506 6.98804,-6.85254 10.44067,-10.31104c1.29492,-1.29785 2.34814,-2.63965 3.68848,-3.96826c0.31055,-3.44092 0.12451,-9.67236 0.1875,-13.40479c-0.17725,-2.57666 -0.0293,-7.22168 -0.02783,-9.91699l0.01318,-19.92187c-0.09521,-21.29297 -0.05859,-42.58887 0.11133,-63.88169l-0.00879,-42.00586l-0.04102,-12.1229c-0.00439,-1.28306 -0.12158,-4.30459 0.00293,-5.39194c-0.46289,-0.5165 -0.9375,-1.02319 -1.42383,-1.51978l-11.78071,-11.78306c-2.21646,-2.22656 -4.70728,-4.67622 -7.00796,-6.83687c-0.41133,-0.38613 -1.02715,-0.65522 -1.61704,-0.66182c-0.52207,0.2751 -0.31084,0.08101 -0.60527,0.65317c0.02549,1.4313 4.05557,4.94663 5.21104,6.07954l8.97085,8.79858c1.33447,1.32158 3.25781,3.10767 4.42236,4.45898l0.10254,0.12041c0.75146,0.53423 1.54834,1.34546 1.66553,2.28589c0.28125,2.22744 0.11279,4.77554 0.09668,7.04868l-0.04541,13.19897l-0.01758,64.42441l-0.00146,55.33008l0.02344,16.59229c-0.00586,2.12402 0.10547,5.09326 -0.0791,7.13818c-0.07764,0.8584 -4.65967,5.12256 -5.5415,5.96045c-1.70068,1.61426 -3.82031,4.04004 -5.61299,5.41113z" fill="#fdc403"/><path d="M70.11182,31.97725c17.16841,0.10049 34.33726,0.11382 51.50581,0.03984c7.02451,-0.03472 14.12813,-0.50127 21.12539,0.09199c1.0667,0.09038 3.05508,2.45068 3.87026,3.21431c1.01953,1.21157 5.53418,5.31943 6.04834,6.14136l-0.28418,0.04937c-0.38672,-0.18794 -1.26562,-1.20923 -1.68311,-1.60327c0.12451,0.35713 0.25928,0.6646 0.40723,1.01045c-3.55518,-1.37051 -5.82275,-8.05825 -9.33369,-8.05137c-17.84121,0.0353 -35.68755,0.04922 -53.52788,0.02329c-5.7104,0.00601 -11.41978,-0.14839 -17.12139,-0.46274c1.3248,-0.3123 9.20156,-0.06064 11.15684,-0.06021l32.44233,0.00718c1.51538,0.00044 8.26201,0.19102 9.32549,-0.06372c-1.86255,0.03149 -3.74385,-0.08745 -5.59702,-0.07485l-27.41997,0.00073c-6.50962,-0.023 -13.03257,0.11997 -19.54292,0.04204c-0.51855,-0.00615 -0.89224,-0.09111 -1.37153,-0.30439z" fill="#f5c316"/><path d="M173.12842,237.49512c-0.42627,-0.68555 -0.38672,-2.38037 -0.38672,-3.23145c0.00146,-5.38477 0.04541,-10.77832 0.03223,-16.16016l-0.02637,-53.11816c-0.11719,-11.35254 -0.06299,-22.70464 0.1626,-34.05439c0.0249,-1.35703 -0.11426,-6.40942 0.20361,-7.39189l0.05713,73.68457l0.00586,26.3584c0.00146,4.14404 0.17725,9.86133 -0.04834,13.91309z" fill="#eac847"/><path d="M59.6877,219.92432c7.1959,-3.46436 14.10718,-6.854 20.63745,-11.61475c1.03462,-0.75439 5.97275,-4.93066 6.60029,-4.95117c1.1792,1.75488 -0.69668,14.53418 0.98262,17.08301l-0.39463,-0.03369c-1.58101,-0.86133 -0.76055,-8.20752 -1.05366,-9.95801c-0.12773,-0.76172 -0.20713,-5.07422 -0.40225,-5.37744c-0.51299,0.13037 -2.63027,2.06543 -3.2666,2.55029c-1.80806,1.37695 -2.87344,0.74268 -4.61294,2.68799l0.26616,-0.03076l0.1979,-0.14648c-2.12227,1.85449 -16.75635,10.8208 -18.95435,9.79102z" fill="#f5c316"/><path d="M37.70332,238.16455c-0.24536,-1.97314 -0.15981,-4.65527 -0.14927,-6.66943l0.02739,-10.01221c-0.0063,-2.81836 -0.16641,-5.93994 0.00337,-8.75537c0.02461,-0.40869 0.19321,-0.65186 0.50581,-0.86572c1.1105,0.13916 4.19839,2.21631 5.42373,2.95166c-1.6207,-0.06738 -3.33442,-1.6084 -4.85786,-1.40479c-1.3894,1.2876 0.35947,21.31787 -0.95317,24.75586z" fill="#eac847"/><path d="M89.22817,221.75244c1.97666,1.35645 3.91538,4.01807 5.50986,5.12842c6.82324,0.30029 14.17734,0.17432 21.0252,0.03223c0.98877,-0.02197 2.52451,-1.90869 3.3063,-2.60742c-0.2562,1.0708 -1.73232,3.10254 -2.94243,3.1626c-6.15601,0.30469 -12.33413,-0.04395 -18.49585,0.03662c-1.096,0.01318 -2.15947,0.01318 -3.25283,-0.08789c-1.04648,-0.81885 -5.26816,-4.45312 -5.15024,-5.66455z" fill="#f5c316"/><path d="M120.06665,223.22461c0.47593,-1.1748 2.9083,-2.29541 3.40459,-4.22314c0.13652,0.78223 0.33779,1.15869 -0.12188,1.73877c-0.89561,1.12939 -1.97666,2.21045 -3.00659,3.21387l-0.00308,-0.19189c-0.00659,-0.27979 -0.00044,-0.16846 -0.03413,-0.45557z" fill="#f5c316"/><path d="M155.86963,66.33354c0.75146,0.53423 1.54834,1.34546 1.66553,2.28589c0.28125,2.22744 0.11279,4.77554 0.09668,7.04868l-0.04541,13.19897l-0.01758,64.42441l-0.00146,55.33008l0.02344,16.59229c-0.00586,2.12402 0.10547,5.09326 -0.0791,7.13818c-0.07764,0.8584 -4.65967,5.12256 -5.5415,5.96045c-1.70068,1.61426 -3.82031,4.04004 -5.61299,5.41113c1.1833,-3.30322 9.38057,-8.68945 10.45576,-11.93408c0.58154,-2.96484 0.06885,-6.1333 0.13916,-9.11426c0.26514,-11.17676 -0.29297,-22.67432 -0.03955,-33.79248c0.04834,-3.12158 0.07764,-6.24463 0.08936,-9.36621l-0.03076,-39.12012c-0.01611,-2.20723 -0.4248,-4.72954 -0.43066,-6.97163l0.28564,-48.02725c0.00586,-4.70317 -0.91113,-13.34751 0.07031,-17.4876c-0.15967,-0.47021 -0.67383,-0.85767 -1.05908,-1.21348z" fill="#f5c316"/><path d="M104.18042,252.25049c3.26191,-0.34277 7.83721,-0.11133 11.21147,-0.16113c7.56108,-0.11279 15.4396,0.17432 22.98047,0.03076c-1.61016,0.8833 -8.10747,0.58008 -10.39131,0.58008l-16.16001,-0.01611c-1.65146,-0.01318 -6.27729,-0.47021 -7.38662,0.63135c-0.47695,1.56885 2.2125,1.21436 3.06255,1.2334c10.17773,0.23584 20.63027,-0.50244 30.78062,0.06738c-0.90439,0.41748 -5.0376,0.46143 -6.19937,0.48633c-3.55547,0.05127 -7.11138,0.06885 -10.66729,0.05273c-2.20327,0.00146 -16.05073,0.27246 -17.12183,-0.46582c-0.45234,-0.81152 -0.24302,-1.52051 -0.10869,-2.43896z" fill="#eac847"/><path d="M215.74219,31.89375c1.53223,-0.03677 3.25928,0.08086 4.84863,0.07354l17.91064,0.00586l8.75391,-0.00396c2.21045,-0.0123 4.45166,-0.29883 6.57422,0.21929c0.24609,0.90513 -1.41064,3.52485 -1.9541,4.29243c-0.57715,1.44741 -1.98047,3.53979 -2.80811,4.87969c-1.37109,2.2188 -2.71729,4.45239 -4.04004,6.70034c-0.36475,0.61714 -1.83398,3.00894 -1.90576,3.52529c-0.50391,3.61143 -0.26367,9.2272 -0.25488,12.87817l0.01172,23.90317c0,3.81841 0.15527,8.89658 -0.02783,12.60864c0.14648,7.11138 0.0249,14.61445 0.0249,21.75176l0.05273,32.40483l-0.00146,9.66357c0.01318,2.02734 0.32959,5.58838 -0.1626,7.34619c-3.16699,-0.02051 -8.99414,-0.50537 -12.37793,-0.76611c-0.86865,-0.10107 -2.51367,-0.3501 -3.30322,-0.02197l0.01904,0.20947c0.2373,2.7583 -0.23877,21.06885 0.26221,22.11475c1.4751,0.55078 12.66797,0.15967 14.9751,0.28271c0.99902,0.05273 3.08789,-0.14355 4.21436,0.06299c0.39258,0.07178 0.61523,0.19775 0.76611,0.58008c0.2417,0.6123 0.19043,1.81934 0.19336,2.48438c0.10986,7.12646 0.12598,14.25293 0.04834,21.37939c0.05127,4.65234 -1.1543,3.50537 -3.16406,6.83057c-0.14355,0.31201 -0.43359,0.9873 -0.5918,1.25537c-0.34131,1.70215 -0.44531,2.69092 -0.30176,4.4458c0.0249,0.30176 0.17139,1.396 0.16699,1.61133c1.75781,5.19873 5.05664,7.57178 10.40625,8.06396c4.21875,0.29297 10.18652,0.22852 14.47998,0.13623c0.20947,-0.07471 0.09814,-0.04834 0.32959,-0.07178c3.20361,-0.32373 4.21289,-0.54932 6.76465,-2.42725c0.23877,-0.36768 1.37549,-1.60986 1.72559,-2.0083c1.00049,-1.24512 1.28027,-2.19727 1.74756,-3.69287c0.23438,-1.98926 0.21094,-3.51855 0.20947,-5.51221c2.45361,-0.50098 8.96924,-0.39404 11.33643,0.02051c1.11182,2.90771 0.33838,13.32715 0.5376,17.04785c0.20947,3.8877 -0.10254,8.87842 -0.00146,12.85254c0.05127,2.06543 0.1377,9.68408 -0.36328,11.01123c-2.53125,0.23145 -5.37598,0.15088 -7.94824,0.14941l-12.2124,-0.01172l-42.31348,-0.07324l-48.52441,0.08496l-13.79883,-0.09814c-2.80518,0 -7.08691,0.16992 -9.71045,-0.104c0.61816,-1.2085 1.46924,-2.35107 2.58398,-3.15088c2.61035,-2.70996 5.36572,-5.30127 7.99072,-7.99951c0.69141,-0.71045 1.34766,-1.3374 2.12842,-1.94824c1.66992,-0.61523 17.82129,-0.38379 20.64697,-0.36182l34.72705,0.03955c11.6499,-0.07031 23.27197,-0.0791 34.92627,0.00439c0.68848,0.00586 1.64795,0.0498 2.26611,-0.24463c0.16113,-0.30469 0.21094,-1.56445 -0.06445,-1.57617c-2.98828,-0.11865 -6.00732,-0.06445 -9.00146,-0.06152l-53.26465,0.01318l-17.52393,0.0293c-1.58057,0.00146 -8.60742,0.1582 -9.65918,-0.30615c-0.55664,-0.77051 0.29297,-1.31689 0.87158,-1.80908c1.02832,-0.96533 4.66992,-5.03467 5.30273,-5.26172c0.97119,-1.34473 2.37744,-2.40674 3.35156,-3.81592c0.08496,-2.45068 0.05566,-4.90576 0.05859,-7.36963c0.00146,-0.95068 -0.55078,-6.66943 0.20215,-6.95947c3.30469,-1.27441 26.80371,0.4292 28.17041,-0.54492c0.35156,-2.48584 0.17285,-10.14697 0.17432,-12.98584l0.01172,-26.8667l0.01465,-94.46016c0.00879,-0.76216 0.15381,-2.42988 -0.31787,-2.9502c-1.00488,0.59619 -3.32373,3.00396 -4.40625,3.96035c-4.56738,4.04019 -8.99268,8.29893 -13.59814,12.30601c-2.22949,1.93931 -4.35645,4.12998 -6.61523,5.99883c-0.84082,0.89429 -2.07275,2.43179 -3.23437,2.64697c-0.95361,-0.33413 -0.63721,-1.6147 -0.48926,-2.45112c0.28564,-2.46357 0.18896,-5.85132 0.18164,-8.39136c-0.03955,-13.54189 -0.0835,-27.07061 0.04834,-40.61294c0.02051,-2.10791 0.73828,-2.66235 2.21338,-3.97339c1.2085,-1.073 2.45801,-2.13999 3.66504,-3.22061l16.26855,-14.43311c2.90332,-2.6105 5.72461,-5.43105 8.67334,-7.98999c1.02393,-0.88813 1.82959,-1.05088 3.104,-1.33828z" fill="#fdc403"/><path d="M279.33398,227.09912c2.45361,-0.50098 8.96924,-0.39404 11.33643,0.02051c1.11182,2.90771 0.33838,13.32715 0.5376,17.04785c0.20947,3.8877 -0.10254,8.87842 -0.00146,12.85254c0.05127,2.06543 0.1377,9.68408 -0.36328,11.01123c-2.53125,0.23145 -5.37598,0.15088 -7.94824,0.14941l-12.2124,-0.01172l-42.31348,-0.07324l-48.52441,0.08496l-13.79883,-0.09814c-2.80518,0 -7.08691,0.16992 -9.71045,-0.104c0.61816,-1.2085 1.46924,-2.35107 2.58398,-3.15088c-0.05713,0.38965 -0.21533,0.50391 -0.46729,0.85547c0.38086,-0.02783 0.44678,-0.53906 1.06641,-0.53467l-0.00879,0.17578c-0.52588,0.50977 -1.2832,1.021 -0.72217,1.68018c1.27588,0.48779 4.26416,0.17871 5.8125,0.18164l13.22754,-0.00146l82.30811,-0.03662l19.45166,0.04102c3.60352,0.00439 6.73828,0.11279 10.37988,-0.09229c-0.03516,-1.45605 0.20801,-3.33398 0.20801,-4.96289l0.08496,-21.39111c0.01758,-3.31934 0.03809,-9.79395 -0.49658,-12.87598c-2.65723,-0.17725 -6.9082,-0.35156 -9.46729,0.08936v-0.02344c-0.03223,0.84961 -0.17725,3.91846 -0.50391,4.50439l-0.1377,-0.06885c0.33838,-1.09131 0.25342,-3.55371 0.26074,-4.79297c0.28125,-0.10986 0.38672,-0.15967 0.65332,-0.2915l-0.57275,-0.00879c-0.71338,0.88916 0.06299,3.38672 -0.61963,5.22949l-0.25195,0.10693c0.23438,-1.98926 0.21094,-3.51855 0.20947,-5.51221z" fill="#f5c316"/><path d="M172.96289,250.60693c0.27539,0.44971 0.25049,0.46729 0.3252,0.96973c0.22412,0.22119 0.48633,0.45996 0.80713,0.47314c1.63184,0.06592 3.47314,0.0542 5.0918,0.05713l13.85596,-0.01904l43.83691,0.0249l12.98438,-0.03369c3.5127,-0.01025 7.08691,-0.08789 10.58203,0.28271c1.53955,0.16406 1.80469,-0.13916 1.85303,1.72852c0.00732,0.27979 -0.01758,0.19336 -0.2124,0.50537c-0.85986,0.49805 -1.80908,0.49951 -2.79639,0.50977c-8.34814,0.08643 -16.7124,0.05127 -25.06201,0.04395l-42.58154,-0.00879c-6.37646,0 -15.65918,0.05127 -22.28174,-0.09229c-0.07178,-0.00146 -0.25928,-0.12598 -0.32666,-0.16846c1.66992,-0.61523 17.82129,-0.38379 20.64697,-0.36182l34.72705,0.03955c11.6499,-0.07031 23.27197,-0.0791 34.92627,0.00439c0.68848,0.00586 1.64795,0.0498 2.26611,-0.24463c0.16113,-0.30469 0.21094,-1.56445 -0.06445,-1.57617c-2.98828,-0.11865 -6.00732,-0.06445 -9.00146,-0.06152l-53.26465,0.01318l-17.52393,0.0293c-1.58057,0.00146 -8.60742,0.1582 -9.65918,-0.30615c-0.55664,-0.77051 0.29297,-1.31689 0.87158,-1.80908z" fill="#eac847"/><path d="M244.39746,225.29883c0.29443,-1.75488 1.90137,-2.49316 2.39941,-3.71924c-0.03955,-0.27979 -0.30469,-1.33594 -0.29736,-1.44287c0.55078,-7.68018 0.11279,-15.3252 0.07764,-23.01562c-0.01758,-3.66504 -3.84668,-2.36719 -6.38232,-2.5708c-2.56641,-0.13477 -5.2998,-0.24316 -7.84717,-0.22559c-1.40332,0.01025 -5.20312,0.7207 -5.70117,-0.77637c-0.55371,-1.66113 -0.08789,-4.56006 -0.09521,-6.42041c-0.01465,-3.84814 -0.95947,-12.75439 0.23145,-16.04004l0.30029,0.2666l0.01904,0.20947c0.2373,2.7583 -0.23877,21.06885 0.26221,22.11475c1.4751,0.55078 12.66797,0.15967 14.9751,0.28271c0.99902,0.05273 3.08789,-0.14355 4.21436,0.06299c0.39258,0.07178 0.61523,0.19775 0.76611,0.58008c0.2417,0.6123 0.19043,1.81934 0.19336,2.48438c0.10986,7.12646 0.12598,14.25293 0.04834,21.37939c0.05127,4.65234 -1.1543,3.50537 -3.16406,6.83057z" fill="#f5c316"/><path d="M247.56152,218.46826c-1.09863,-1.29053 -0.375,-17.47559 -0.4834,-20.12842c-0.01611,-0.41602 0.18457,-0.90088 0.43506,-1.25098c0.10986,7.12646 0.12598,14.25293 0.04834,21.37939z" fill="#eac847"/><path d="M215.74219,31.89375c1.53223,-0.03677 3.25928,0.08086 4.84863,0.07354l17.91064,0.00586l8.75391,-0.00396c2.21045,-0.0123 4.45166,-0.29883 6.57422,0.21929c0.24609,0.90513 -1.41064,3.52485 -1.9541,4.29243c-0.06885,-0.90483 1.28906,-2.68638 1.74463,-3.83145c-0.37207,-0.47021 -0.97998,-0.39155 -1.74023,-0.5001c0.32227,0.10664 0.52588,0.18882 0.84082,0.3145l0.06006,0.19541c-1.09717,0.87715 -7.61426,0.01743 -9.35889,0.04966c-5.74365,0.10605 -11.53271,0.23687 -17.27344,0.17095c-3.04395,-0.03486 -7.70068,0.39097 -10.40625,-0.98613z" fill="#f5c316"/><path d="M254.07715,240.67529c4.21875,0.29297 10.18652,0.22852 14.47998,0.13623c-1.5,0.97266 -13.10303,1.02246 -14.47998,-0.13623z" fill="#eac847"/><path d="M181.58789,111.85342c1.47656,1.68428 2.00098,0.26587 3.72363,-0.19585c-0.84082,0.89429 -2.07275,2.43179 -3.23437,2.64697c-0.95361,-0.33413 -0.63721,-1.6147 -0.48926,-2.45112z" fill="#eac847"/><path d="M243.6709,232.61133l-0.20361,-0.0542c-0.12744,-0.31787 -0.13916,-0.37354 -0.17871,-0.70312l-0.03223,-0.28125l-0.18018,-0.09521l-0.21533,0.34863l-0.13623,-0.08936c-0.52295,-1.19385 -0.104,-2.48145 0.2915,-3.66504l0.00732,0.09082c0.44531,-0.6709 0.16992,-1.0459 0.78223,-1.6084c-0.34131,1.70215 -0.44531,2.69092 -0.30176,4.4458c0.0249,0.30176 0.17139,1.396 0.16699,1.61133z" fill="#f5c316"/><path d="M227.22803,170.43604c1.40479,0.08936 2.27637,-0.22119 3.1582,0.94043c-0.86865,-0.10107 -2.51367,-0.3501 -3.30322,-0.02197l-0.30029,-0.2666z" fill="#eac847"/><path d="M56.56597,98.35269c2.7438,0.89985 6.41118,3.20244 9.13579,4.58145c9.73989,4.93008 19.87207,7.78257 30.53262,9.86382c1.0002,0.19526 2.01299,0.3353 3.01641,0.51108c1.10435,0.2644 3.96606,0.36562 4.55244,1.27529c0.82822,2.53667 0.24419,18.79834 0.23569,22.23252c-0.00981,3.86001 0.21138,8.55498 0.15044,12.5064c-0.05874,3.80713 -0.36094,8.10791 -0.69697,11.92529c-1.35117,11.10791 -7.43657,24.14355 -15.06182,32.2793c-5.33525,5.69238 -14.21616,13.11328 -21.33633,16.46631c-1.69819,0.97412 -3.39448,1.94238 -5.14673,2.81396c-2.17954,1.08398 -4.38164,2.42725 -6.91084,1.69629c-1.61118,-0.46582 -3.03809,-1.27002 -4.52124,-2.03613c-1.7603,-0.59619 -5.0688,-2.81982 -6.69067,-3.75146c-19.32451,-11.10498 -32.58604,-29.27051 -34.39318,-51.76465c-0.24807,-3.08789 -0.19252,-6.2915 -0.19702,-9.44531l0.02571,-14.93672l-0.02167,-10.80205c-0.00416,-2.38066 -0.12294,-5.31563 0.25723,-7.60957c1.85175,-0.4998 5.19393,-0.84111 7.35765,-1.31162c6.97031,-1.51567 14.32764,-3.09053 21.06694,-5.48994c4.0437,-1.43979 9.2417,-4.22241 13.12603,-6.13813c2.0061,-0.9895 3.24639,-1.89873 5.51953,-2.86611zM50.49917,111.00234c-1.56372,0.88506 -4.69995,2.38784 -6.3835,2.91694c-0.55532,0.37412 -1.79121,0.77417 -2.47383,1.03711c-1.096,0.5814 -6.63779,2.39224 -7.8394,2.59658c-0.68188,0.3063 -1.41445,0.45366 -2.13955,0.63516c-4.50308,1.1272 -8.97349,2.35225 -13.59111,2.9395c-0.26162,4.829 -0.00293,9.8521 -0.12114,14.72798c-0.14268,5.89351 -0.01011,12.00132 0.16963,17.89585c0.40913,12.5625 5.08315,25.05322 13.68398,34.32129c5.45947,5.88281 13.0585,11.09326 20.07231,14.98975c3.8228,2.12402 3.84683,3.05127 7.91851,1.00635c1.88716,-0.90527 4.57529,-2.91943 6.39126,-3.48047c0.01289,-0.02051 6.90586,-4.98486 7.36523,-5.24707c1.70376,-1.49121 3.37998,-2.45654 5.20986,-4.33154c0.10107,-0.26807 1.25303,-1.2583 1.54219,-1.54541c11.45522,-11.37305 15.46348,-26.74072 15.37866,-42.47168c-0.00908,-1.66304 -0.16685,-3.34775 -0.14941,-5.0105c0.07236,-6.87788 0.48486,-13.97505 -0.25591,-20.81777c-2.17119,-0.60542 -5.03569,-0.89912 -7.36582,-1.37944c-6.80698,-1.40288 -12.82573,-3.76377 -19.32261,-6.09565c-4.05205,-1.45444 -7.9752,-4.38281 -11.85981,-5.65532c-1.72822,0.44897 -4.43862,2.09282 -6.22954,2.96836z" fill="#f5c316"/><path d="M103.80322,114.58433c0.82822,2.53667 0.24419,18.79834 0.23569,22.23252c-0.00981,3.86001 0.21138,8.55498 0.15044,12.5064c-0.05874,3.80713 -0.36094,8.10791 -0.69697,11.92529c0.07427,-1.70215 -0.33853,-4.06201 -0.4144,-5.83887c0.1207,-0.14648 0.24155,-0.29443 0.36226,-0.44092c-0.01187,-0.90674 -0.07544,-2.29395 -0.05845,-3.14062c0.02197,-1.09131 0.2168,-2.17676 0.21152,-3.21094c-0.04673,-9.06533 0.03545,-18.12803 0.03384,-27.19204c-0.00029,-1.05249 -0.11689,-6.18398 0.17607,-6.84082z" fill="#eac847"/><path d="M50.51543,212.46826c1.30972,-0.04834 1.32964,0.59326 2.00288,0.55664c-0.62593,-0.65918 -2.03276,-1.1543 -2.34961,-1.52344c1.67065,0.20654 4.62803,2.62646 6.11016,2.52539c3.83027,-0.26221 6.80625,-4.18945 10.81538,-4.03271c-1.69819,0.97412 -3.39448,1.94238 -5.14673,2.81396c-2.17954,1.08398 -4.38164,2.42725 -6.91084,1.69629c-1.61118,-0.46582 -3.03809,-1.27002 -4.52124,-2.03613z" fill="#fdc403"/><path d="M56.54517,198.82764c-1.83208,-0.4541 -3.26162,-1.48975 -4.88613,-2.43896c-9.53599,-5.56641 -18.69082,-13.78271 -23.48833,-23.89893c-4.52432,-9.53906 -4.43906,-21.4292 -4.40376,-31.78345c0.00498,-2.82246 0.03369,-5.64478 0.08628,-8.46665c0.01553,-0.96885 -0.13652,-5.69839 0.74282,-5.96689c3.54346,-1.04795 7.11035,-1.65806 10.68032,-2.74307c4.66611,-1.41841 9.08657,-3.21475 13.6188,-5.01094c1.33594,-0.52954 7.12207,-4.06509 8.03364,-3.71953c3.9498,1.49736 7.75137,3.9249 11.77236,5.38564c5.53726,2.16284 10.67827,3.68174 16.35366,5.05225c5.08887,0.87158 4.56182,0.57524 4.61777,5.93423c0.00952,0.89941 -0.00029,1.86533 -0.00513,2.76738c0.18516,1.93755 0.11353,4.7855 0.09448,6.78633c0.02725,3.07192 0.17402,10.61089 -0.24888,13.26665c-0.01406,0.78809 -0.24331,2.5166 -0.34893,3.36328c-0.86689,6.95654 -2.51675,13.03711 -6.09536,19.09424c-5.03188,8.51807 -12.85869,14.80371 -21.23467,19.8457c-1.42178,0.85693 -3.74282,2.15771 -5.28896,2.53271zM56.64888,127.51216c0.09932,7.51304 0.27363,15.57847 0.15205,23.0811c0.21841,10.78564 -0.17461,21.63428 0.17593,32.43018c0.08599,2.64551 -0.19702,5.32471 -0.16362,7.95557c1.80894,-0.60498 2.29043,-1.47217 3.81138,-2.10937c0.19131,-0.23291 2.73926,-1.87354 3.23818,-2.2251c5.0729,-3.57568 9.33853,-7.85889 12.69814,-13.09131c1.32583,-2.06396 2.10732,-3.91846 3.20977,-6.06445c3.1147,-8.88428 2.9751,-16.19531 2.89351,-25.43071c-0.02695,-3.05317 0.08687,-7.43408 -0.08027,-10.35776c-0.32578,-0.39668 -0.44121,-0.31025 -1.05864,-0.4812c-2.40542,0.39404 -15.84976,-4.78828 -18.64014,-6.04746c-1.49341,-0.67383 -4.57178,-2.16943 -6.17168,-2.61885c-0.09023,1.4042 -0.04849,3.48823 -0.0646,4.95937z" fill="#fdc403"/><path d="M85.05483,125.23711c5.08887,0.87158 4.56182,0.57524 4.61777,5.93423c0.00952,0.89941 -0.00029,1.86533 -0.00513,2.76738c0.18516,1.93755 0.11353,4.7855 0.09448,6.78633c0.02725,3.07192 0.17402,10.61089 -0.24888,13.26665c-0.63691,-5.74365 -0.23774,-11.61636 -0.36328,-17.40322c-0.06929,-3.19102 0.01685,-6.26704 -0.59033,-9.41938c-0.33018,-0.2436 -0.65815,-0.48999 -0.98394,-0.73945l0.08145,-0.3394c-0.84375,-0.43594 -1.76689,-0.04863 -2.60215,-0.85312z" fill="#eac847"/><path d="M89.76196,140.72505c-0.12891,-0.09434 -0.2647,-0.23452 -0.38452,-0.34731c-0.32446,-1.49473 -0.14414,-4.93081 0.29004,-6.43901c0.18516,1.93755 0.11353,4.7855 0.09448,6.78633z" fill="#eac847"/><path d="M56.11948,144.31816c0.17402,0.69463 0.10093,3.13154 0.13184,3.99287c0.04629,1.28467 0.12319,2.47705 0.22705,3.76904c0.22017,-0.61377 -0.17607,-0.80273 0.32256,-1.48682c0.21841,10.78564 -0.17461,21.63428 0.17593,32.43018c0.08599,2.64551 -0.19702,5.32471 -0.16362,7.95557c1.80894,-0.60498 2.29043,-1.47217 3.81138,-2.10937c-0.09082,1.01221 -2.48423,2.39795 -3.4626,2.49316c-0.38364,0.03662 -0.61274,-0.25635 -0.84302,-0.49512c-0.56206,-2.58398 -0.14165,-6.2959 -0.17783,-9.05273c-0.10737,-8.74219 -0.54829,-17.41846 -0.14121,-26.16357c0.1708,-3.6709 -0.16113,-7.67725 0.11953,-11.3332z" fill="#f5c316"/><path d="M81.52529,131.21909c0.5124,-0.00981 1.16895,-0.09302 1.49355,0.37017c1.06655,1.52212 0.47856,3.77285 0.42612,5.48423c-0.06284,2.04697 -0.08994,3.96987 -0.20625,5.99839c-0.06665,1.29683 0.0564,2.75361 0.01875,4.08193c-0.06445,2.26904 -0.20654,4.50293 -0.35332,6.76611c-0.08071,1.24512 -0.11704,2.52979 -0.2373,3.77344c-0.05332,0.55225 -0.64102,1.83691 -0.65464,2.29688c-0.06313,2.12256 0.52544,4.04883 -0.704,6.04248c-0.18735,-0.64307 0.24888,-1.89404 0.06812,-2.32617c-0.56514,1.05029 -0.60688,3.18457 -1.60562,3.78223c3.1147,-8.88428 2.9751,-16.19531 2.89351,-25.43071c-0.02695,-3.05317 0.08687,-7.43408 -0.08027,-10.35776c-0.32578,-0.39668 -0.44121,-0.31025 -1.05864,-0.4812z" fill="#f5c316"/><path d="M56.11948,144.31816c-0.00571,-5.93804 0.1125,-10.89683 0.52939,-16.80601c0.09932,7.51304 0.27363,15.57847 0.15205,23.0811c-0.49863,0.68408 -0.10239,0.87305 -0.32256,1.48682c-0.10386,-1.29199 -0.18076,-2.48437 -0.22705,-3.76904c-0.03091,-0.86133 0.04219,-3.29824 -0.13184,-3.99287z" fill="#eac847"/><path d="M248.58984,174.07471c-0.22266,-1.4209 -0.0835,-3.71484 -0.0498,-5.21338c0.03955,-1.93945 0.0498,-3.88037 0.03076,-5.81982c-0.05713,-10.53662 -0.02051,-21.07295 0.10986,-31.6084c0.22266,-24.59897 -0.12598,-49.25054 -0.00146,-73.85435c0.00439,-0.9249 0.03516,-3.89692 0.37646,-4.56123c3.29883,-6.44443 7.3667,-12.53232 10.98047,-18.8127c0.28857,-0.50098 0.82617,-1.46455 1.37549,-1.59492c1.27734,1.12266 9.35596,14.90874 10.68896,17.36646c0.84375,1.21597 2.09619,2.86245 2.1665,4.32773c0.18018,3.74487 0.0835,7.71958 0.08203,11.4646l-0.03223,23.68403l0.01611,55.18198c-0.00439,10.93901 -0.20801,22.76763 0.06885,33.65728c1.021,-0.07031 2.04199,-0.12451 3.06445,-0.16113c2.01855,-0.09229 5.81982,-0.60937 7.85596,-0.88037c1.07666,-0.24316 3.77051,-0.66797 4.79736,-0.31641c0.13623,0.15088 0.28418,0.30762 0.41162,0.46289c0.33252,1.56738 0.36035,3.18311 0.0835,4.76074c-0.13623,1.11035 -0.16406,2.09619 -0.17871,3.20654c-0.03076,2.31592 0.01465,2.98535 -2.35107,2.86816c-3.21973,0.19482 -7.90576,0.07178 -11.15771,-0.00439c-1.29785,-0.00879 -5.96924,-0.26514 -6.81445,0.13916c-0.39111,0.69873 -0.16553,1.83252 -0.59326,2.2749c-1.74316,1.80176 -9.52002,5.25 -10.64062,7.14404l0.10107,0.19922c2.80518,0.50244 9.55078,-5.12256 10.8999,-3.55225c0.63721,0.74121 0.30615,3.60352 0.00146,4.47656c-0.36768,1.05908 -3.1377,2.27637 -4.16748,2.74951c-1.27881,0.89063 -5.91943,3.48633 -6.39697,4.56299l0.14502,0.20215c1.92627,0.28564 3.79248,-1.27881 5.51514,-1.90576c1.19971,-0.58447 3.54639,-2.02441 4.65527,-2.11523c0.69434,0.44824 0.5918,4.77686 0.25049,5.15186c-2.58545,2.84473 -8.96484,4.42236 -10.93213,7.71094c3.73682,-0.55811 6.55957,-2.52246 9.84375,-4.27295c0.37061,-0.19775 0.54053,-0.1333 0.86279,-0.0249c0.65479,0.85254 0.84375,5.0625 -0.34131,5.86816c-1.97607,1.34326 -8.5957,4.53076 -9.74561,6.18018l0.01758,0.28857c1.71094,1.1792 8.45947,-3.94482 10.12646,-3.81738c1.11768,1.11182 -0.51709,4.83691 0.9375,5.98535c0.86572,0.68262 1.69629,1.10742 2.37744,1.96729c1.78564,3.43506 0.61523,5.72168 -2.56494,7.47656c-2.33936,0.67822 -12.92578,0.37646 -15.91846,0.26074c-0.25488,-0.00732 -0.5083,-0.01758 -0.76172,-0.03076c-2.93701,-0.15674 -5.29102,-2.34961 -5.04199,-5.45508c0.20068,-2.49902 1.88232,-3.1377 3.59766,-4.47217c0.89209,-0.69434 0.30029,-5.29102 0.41748,-6.40137c0.09961,-2.68506 0.00586,-5.41553 0.01318,-8.09473l0.01465,-12.7002c0.01904,-3.21973 0.11279,-6.64014 -0.0249,-9.8291l-2.61914,0.05273c-3.36182,-0.01611 -6.72363,-0.01318 -10.08398,0.00732c-1.24805,0.00879 -6.5376,0.29736 -7.28174,-0.40723c-0.48779,-1.51904 -0.47461,-9.12158 0.14795,-10.59668c1.04736,-0.62988 4.98926,0.0542 6.38086,0.21826c1.32568,0.07178 2.64844,0.16113 3.97119,0.26807c4.24951,0.25635 8.41992,0.71338 12.65918,1.08691c2.04346,0.18018 3.44092,0.41748 5.55029,0.46436c0.97412,0.02197 1.60693,0.16699 2.0332,-0.80713c-0.25488,-0.81885 -0.18311,-7.27002 -0.15234,-8.46094c-0.09668,-1.13525 -0.04395,-3.2666 -0.05273,-4.47949c-0.0293,-3.50244 -0.02197,-7.00635 0.02344,-10.50879l0.01904,-37.4502l0.00879,-12.09126c0.00293,-1.96187 0.27393,-6.26133 -0.42627,-8.07729c-0.52881,-1.37314 -3.30029,-1.04414 -3.37939,1.021c-0.18457,4.75005 0.3252,9.65464 0.01025,14.41626c0.15234,4.61265 0.01904,9.6665 0.01172,14.31665l0.07178,18.73594c-0.00293,3.43799 0.31201,28.37256 -0.44824,29.19141c-1.39453,0.36768 -9.60498,-0.22998 -10.61426,-1.01953z" fill="#fdc403"/><path d="M258.84375,169.88086c-0.17871,-1.62012 0.01465,-7.30225 -0.00732,-9.26074l-0.04395,-25.05454l-0.02637,-26.71934c-0.00439,-3.03604 -0.13184,-6.03369 -0.12744,-9.08335c0.00293,-1.81011 0.59766,-3.69844 2.7085,-3.88594c1.25391,-0.11133 2.69678,1.81699 2.76123,2.86699c0.23877,3.94204 0.10107,7.94077 0.12158,11.89907c0.11865,8.76328 0.11719,17.52773 -0.00146,26.29102l0.06885,17.13823c-0.01318,2.48584 -0.20801,5.06689 -0.18164,7.5293l0.16846,9.79395c0.03955,1.64063 0.35596,6.19482 -0.15381,7.64355l-0.23437,0.31641c-0.11572,-0.40869 -0.11719,-0.53906 -0.37793,-0.87451c-0.25488,-0.81885 -0.18311,-7.27002 -0.15234,-8.46094c-0.09668,-1.13525 -0.04395,-3.2666 -0.05273,-4.47949c-0.0293,-3.50244 -0.02197,-7.00635 0.02344,-10.50879l0.01904,-37.4502l0.00879,-12.09126c0.00293,-1.96187 0.27393,-6.26133 -0.42627,-8.07729c-0.52881,-1.37314 -3.30029,-1.04414 -3.37939,1.021c-0.18457,4.75005 0.3252,9.65464 0.01025,14.41626c0.15234,4.61265 0.01904,9.6665 0.01172,14.31665l0.07178,18.73594c-0.00293,3.43799 0.31201,28.37256 -0.44824,29.19141c-1.39453,0.36768 -9.60498,-0.22998 -10.61426,-1.01953c0.60352,0.02197 0.92432,0.12598 1.60547,0.10254l-0.26807,-0.03955c1.31396,-0.0498 7.66553,0.29883 8.34521,-0.16846c0.42188,-1.14697 0.49951,-2.8623 0.57129,-4.08838z" fill="#f5c316"/><path d="M258.84375,169.88086c0.375,-0.4248 0.10693,-12.04102 0.19336,-13.88379c-0.00146,-1.35205 0.20801,-2.78467 0.1626,-4.125c-0.27246,-8.11992 -0.49805,-16.40244 0.00439,-24.51445c0.24463,-3.96094 -0.54492,-10.81582 0.36475,-14.50737c0.15234,4.61265 0.01904,9.6665 0.01172,14.31665l0.07178,18.73594c-0.00293,3.43799 0.31201,28.37256 -0.44824,29.19141c-1.39453,0.36768 -9.60498,-0.22998 -10.61426,-1.01953c0.60352,0.02197 0.92432,0.12598 1.60547,0.10254l-0.26807,-0.03955c1.31396,-0.0498 7.66553,0.29883 8.34521,-0.16846c0.42188,-1.14697 0.49951,-2.8623 0.57129,-4.08838z" fill="#eac847"/><path d="M263.36572,170.02002c0.59766,3.4292 0.59912,5.63086 0.76465,9.01904l-0.23437,0.31641c-0.11572,-0.40869 -0.11719,-0.53906 -0.37793,-0.87451c-0.25488,-0.81885 -0.18311,-7.27002 -0.15234,-8.46094z" fill="#eac847"/><path d="M285.32227,177.25049c1.07666,-0.24316 3.77051,-0.66797 4.79736,-0.31641c0.13623,0.15088 0.28418,0.30762 0.41162,0.46289c0.33252,1.56738 0.36035,3.18311 0.0835,4.76074c-0.13623,1.11035 -0.16406,2.09619 -0.17871,3.20654c-0.03076,2.31592 0.01465,2.98535 -2.35107,2.86816c-3.21973,0.19482 -7.90576,0.07178 -11.15771,-0.00439c-1.29785,-0.00879 -5.96924,-0.26514 -6.81445,0.13916c-0.39111,0.69873 -0.16553,1.83252 -0.59326,2.2749c-1.74316,1.80176 -9.52002,5.25 -10.64062,7.14404l0.10107,0.19922c2.80518,0.50244 9.55078,-5.12256 10.8999,-3.55225c0.63721,0.74121 0.30615,3.60352 0.00146,4.47656c-0.36768,1.05908 -3.1377,2.27637 -4.16748,2.74951c0.42627,-1.02686 2.63672,-1.50879 3.43506,-2.31299c0.0835,-0.0835 0.40137,-0.47314 0.39404,-0.5083c-0.21533,-1.05029 -0.24463,-2.52393 -0.22998,-3.50244c-0.38086,-0.02051 -1.36084,-0.07178 -1.66992,0.06592c-2.27051,1.01074 -4.4209,2.45215 -6.84521,3.06445c-1.27734,0.32227 -1.48535,0.19922 -2.5708,-0.45703l-0.02051,-0.24902c1.34326,-2.49316 7.13965,-4.7417 9.45117,-7.04297c1.91748,-1.91016 0.89209,-2.55029 2.77588,-3.50977c0.42627,-0.2168 0.68408,-0.25049 1.09717,-0.09668l-0.00146,0.16699c-0.35596,0.31201 -0.60645,0.30469 -1.07812,0.39258l-0.19043,0.03516l-0.00439,0.09229c0.73096,-0.00586 3.87305,0.14355 4.24512,-0.02051l0.02637,-0.27246c2.10059,-0.646 12.32373,1.21875 14.6748,-0.82178c0.34863,-0.30176 0.41016,-7.62744 0.06738,-8.61035c-0.82178,-0.52148 -11.51514,0.854 -13.67871,0.76318c0.72656,-0.29297 1.35498,-0.17139 1.875,-0.70459c2.01855,-0.09229 5.81982,-0.60937 7.85596,-0.88037z" fill="#f5c316"/><path d="M276.92725,188.22803l-0.10254,-0.22559c0.36182,-0.32227 10.45605,-0.51562 11.26025,0.22998c-3.21973,0.19482 -7.90576,0.07178 -11.15771,-0.00439z" fill="#eac847"/><path d="M290.05518,179.56934c0.03076,-0.80566 -0.06006,-1.60986 0.47607,-2.17236c0.33252,1.56738 0.36035,3.18311 0.0835,4.76074c-0.45264,-1.00049 -0.50977,-1.46924 -0.55957,-2.58838z" fill="#eac847"/><path d="M272.10059,49.97637c0.84375,1.21597 2.09619,2.86245 2.1665,4.32773c0.18018,3.74487 0.0835,7.71958 0.08203,11.4646l-0.03223,23.68403l0.01611,55.18198c-0.00439,10.93901 -0.20801,22.76763 0.06885,33.65728c1.021,-0.07031 2.04199,-0.12451 3.06445,-0.16113c-0.52002,0.5332 -1.14844,0.41162 -1.875,0.70459c-0.56982,-0.02344 -1.05176,0.08057 -1.51172,-0.28271c-0.34424,-0.81299 -0.38232,-13.30664 -0.38379,-15.33398l0.16113,-60.99668l-0.01172,-18.28652c-0.03223,-4.07725 -0.33984,-7.82285 0.03662,-12.00439l0.0498,0.64248c0.30908,-1.68735 0.41748,-17.44541 0.09375,-18.78545c-0.31934,-1.3251 -1.59082,-2.3209 -1.87793,-3.5751c-0.01758,-0.07852 -0.03223,-0.15776 -0.04687,-0.23672z" fill="#eac847"/><path d="M264.97705,204.51855c1.19971,-0.58447 3.54639,-2.02441 4.65527,-2.11523c0.69434,0.44824 0.5918,4.77686 0.25049,5.15186c-2.58545,2.84473 -8.96484,4.42236 -10.93213,7.71094c3.73682,-0.55811 6.55957,-2.52246 9.84375,-4.27295c0.37061,-0.19775 0.54053,-0.1333 0.86279,-0.0249c0.65479,0.85254 0.84375,5.0625 -0.34131,5.86816c-1.97607,1.34326 -8.5957,4.53076 -9.74561,6.18018l0.01758,0.28857c1.71094,1.1792 8.45947,-3.94482 10.12646,-3.81738c1.11768,1.11182 -0.51709,4.83691 0.9375,5.98535c0.86572,0.68262 1.69629,1.10742 2.37744,1.96729c-4.06055,-1.97314 -3.12891,-2.31738 -3.93164,-6.44971c-0.04102,-0.2168 -1.09717,0.0498 -1.2627,0.11426c-3.73535,1.4458 -5.20898,3.19775 -9.36621,2.60156c1.16895,-2.04785 3.68115,-3.53613 5.72607,-4.74463c0.40576,-0.23877 1.21582,-0.19775 1.90723,-0.62695c-0.3501,-0.19629 -0.27832,-0.08496 -0.45557,-0.38525c1.46045,-1.23193 1.91895,-0.56836 3.67676,-2.61621l-0.01025,-3.17139c-3.45703,0.91113 -4.31396,2.35107 -7.42822,3.36035c-0.48047,0.15527 -3.23437,0.14502 -3.93457,0.14502c-0.72949,-1.5498 6.75879,-5.67041 7.98926,-6.41309c0.99023,-0.59766 1.95117,-1.39014 2.92822,-2.02881c0.12598,0.42334 -0.00293,0.27686 0.3208,0.50537c0.36475,-0.19775 0.2373,-0.0498 0.43799,-0.40283c-0.63281,-1.19531 -0.13623,-3.17871 -0.29883,-4.48682c-0.82764,0.02197 -2.46094,2.11377 -4.35059,1.67725z" fill="#eac847"/><path d="M250.14111,188.24707c-3.36182,-0.01611 -6.72363,-0.01318 -10.08398,0.00732c-1.24805,0.00879 -6.5376,0.29736 -7.28174,-0.40723c-0.48779,-1.51904 -0.47461,-9.12158 0.14795,-10.59668c1.04736,-0.62988 4.98926,0.0542 6.38086,0.21826l-0.65918,0.07764c-0.86426,0.10547 -4.52637,0.03369 -4.9292,0.66504c-0.79395,1.24365 -0.88916,7.89844 -0.27979,9.05713c2.24854,1.42822 14.65137,-0.70312 16.70508,0.97852z" fill="#eac847"/><path d="M243.27539,177.73682c4.24951,0.25635 8.41992,0.71338 12.65918,1.08691c2.04346,0.18018 3.44092,0.41748 5.55029,0.46436c0.97412,0.02197 1.60693,0.16699 2.0332,-0.80713c0.26074,0.33545 0.26221,0.46582 0.37793,0.87451l-1.02686,0.76318c-2.22656,0.31348 -3.9375,-0.33984 -6.01611,-0.49365c-2.13721,-0.1377 -4.24512,-0.375 -6.36914,-0.65332c-2.50195,-0.32959 -4.93066,0.01758 -7.2085,-1.23486z" fill="#eac847"/><path d="M263.51807,178.48096c0.26074,0.33545 0.26221,0.46582 0.37793,0.87451l-1.02686,0.76318c-0.55225,-0.06152 -1.4458,-0.25635 -1.85303,-0.63428l0.46875,-0.19629c0.97412,0.02197 1.60693,0.16699 2.0332,-0.80713z" fill="#eac847"/><path d="M254.5459,235.17773c0.26221,-0.09668 0.82031,-0.33838 1.0752,-0.36914c1.15576,-0.12744 2.32324,-0.11133 3.48486,-0.12012c3.55371,-0.02637 7.10889,-0.05127 10.6626,-0.06299c0.27393,-0.00146 0.4834,0.13623 0.6958,0.2915c-2.33936,0.67822 -12.92578,0.37646 -15.91846,0.26074z" fill="#eac847"/></g></svg></svg>